<svg width="153" height="144" viewBox="0 0 153 144" fill="none" xmlns="http://www.w3.org/2000/svg">
<g filter="url(#filter0_d_4_21)">
<path d="M66.1165 82.9245C59.4263 86.6219 51.2112 82.4608 50.9312 75.2328L49.7567 44.9121C49.4622 37.3089 58.0835 32.0678 65.0667 35.605L94.3062 50.4153C101.289 53.9524 101.219 63.5248 94.1815 67.4142L66.1165 82.9245Z" fill="url(#paint0_linear_4_21)"/>
</g>
<g filter="url(#filter1_d_4_21)">
<path d="M128 59C128 87.8634 102.679 112 70.5 112C38.3207 112 13 87.8634 13 59C13 30.1366 38.3207 6 70.5 6C102.679 6 128 30.1366 128 59Z" stroke="white" stroke-width="12" shape-rendering="crispEdges"/>
</g>
<defs>
<filter id="filter0_d_4_21" x="49.7494" y="34.4767" width="64.7525" height="65.8228" filterUnits="userSpaceOnUse" color-interpolation-filters="sRGB">
<feFlood flood-opacity="0" result="BackgroundImageFix"/>
<feColorMatrix in="SourceAlpha" type="matrix" values="0 0 0 0 0 0 0 0 0 0 0 0 0 0 0 0 0 0 127 0" result="hardAlpha"/>
<feOffset dx="10" dy="11"/>
<feGaussianBlur stdDeviation="2.5"/>
<feComposite in2="hardAlpha" operator="out"/>
<feColorMatrix type="matrix" values="0 0 0 0 0 0 0 0 0 0 0 0 0 0 0 0 0 0 0.25 0"/>
<feBlend mode="normal" in2="BackgroundImageFix" result="effect1_dropShadow_4_21"/>
<feBlend mode="normal" in="SourceGraphic" in2="effect1_dropShadow_4_21" result="shape"/>
</filter>
<filter id="filter1_d_4_21" x="0" y="0" width="153" height="144" filterUnits="userSpaceOnUse" color-interpolation-filters="sRGB">
<feFlood flood-opacity="0" result="BackgroundImageFix"/>
<feColorMatrix in="SourceAlpha" type="matrix" values="0 0 0 0 0 0 0 0 0 0 0 0 0 0 0 0 0 0 127 0" result="hardAlpha"/>
<feMorphology radius="7" operator="dilate" in="SourceAlpha" result="effect1_dropShadow_4_21"/>
<feOffset dx="6" dy="13"/>
<feGaussianBlur stdDeviation="3"/>
<feComposite in2="hardAlpha" operator="out"/>
<feColorMatrix type="matrix" values="0 0 0 0 0 0 0 0 0 0 0 0 0 0 0 0 0 0 0.25 0"/>
<feBlend mode="normal" in2="BackgroundImageFix" result="effect1_dropShadow_4_21"/>
<feBlend mode="normal" in="SourceGraphic" in2="effect1_dropShadow_4_21" result="shape"/>
</filter>
<linearGradient id="paint0_linear_4_21" x1="16.2029" y1="42.7536" x2="105.095" y2="90.7494" gradientUnits="userSpaceOnUse">
<stop stop-color="#FF1E00"/>
<stop offset="0.449637" stop-color="#DC2332"/>
<stop offset="1" stop-color="#FF7F00"/>
</linearGradient>
</defs>
</svg>
